<svg width="24" height="24" viewBox="0 0 24 24" fill="none" xmlns="http://www.w3.org/2000/svg">
<path d="M20.9915 7.99667C20.9912 7.64609 20.8986 7.30177 20.7232 6.99825C20.5477 6.69473 20.2956 6.44268 19.9919 6.26739L12.9949 2.26906C12.6909 2.09359 12.3462 2.00122 11.9953 2.00122C11.6443 2.00122 11.2996 2.09359 10.9957 2.26906L3.99861 6.26739C3.695 6.44268 3.44282 6.69473 3.26737 6.99825C3.09193 7.30177 2.99938 7.64609 2.99902 7.99667V15.9933C2.99938 16.3439 3.09193 16.6882 3.26737 16.9918C3.44282 17.2953 3.695 17.5473 3.99861 17.7226L10.9957 21.721C11.2996 21.8964 11.6443 21.9888 11.9953 21.9888C12.3462 21.9888 12.6909 21.8964 12.9949 21.721L19.9919 17.7226C20.2956 17.5473 20.5477 17.2953 20.7232 16.9918C20.8986 16.6882 20.9912 16.3439 20.9915 15.9933V7.99667Z" stroke="#475569" stroke-width="1.99917" stroke-linecap="round" stroke-linejoin="round"/>
<path d="M3.29883 6.99707L11.9952 11.995L20.6916 6.99707" stroke="#475569" stroke-width="1.99917" stroke-linecap="round" stroke-linejoin="round"/>
<path d="M11.9951 21.991V11.9951" stroke="#475569" stroke-width="1.99917" stroke-linecap="round" stroke-linejoin="round"/>
</svg>
