<svg width="24" height="24" viewBox="0 0 24 24" fill="none" xmlns="http://www.w3.org/2000/svg">
<path d="M19.9914 9.99593C19.9914 15.9934 11.9947 21.9909 11.9947 21.9909C11.9947 21.9909 3.99805 15.9934 3.99805 9.99593C3.99805 7.87509 4.84055 5.8411 6.34022 4.34144C7.83988 2.84177 9.87387 1.99927 11.9947 1.99927C14.1156 1.99927 16.1495 2.84177 17.6492 4.34144C19.1489 5.8411 19.9914 7.87509 19.9914 9.99593Z" stroke="#475569" stroke-width="1.99917" stroke-linecap="round" stroke-linejoin="round"/>
<path d="M11.9944 12.9937C13.6503 12.9937 14.9927 11.6513 14.9927 9.99538C14.9927 8.33946 13.6503 6.99707 11.9944 6.99707C10.3385 6.99707 8.99609 8.33946 8.99609 9.99538C8.99609 11.6513 10.3385 12.9937 11.9944 12.9937Z" stroke="#475569" stroke-width="1.99917" stroke-linecap="round" stroke-linejoin="round"/>
</svg>
