<svg width="16" height="16" viewBox="0 0 16 16" fill="none" xmlns="http://www.w3.org/2000/svg">
<path d="M8.66667 2C8.83659 2.00019 9.00002 2.06525 9.12358 2.1819C9.24714 2.29855 9.32149 2.45797 9.33145 2.6276C9.34141 2.79722 9.28622 2.96425 9.17716 3.09455C9.0681 3.22486 8.9134 3.3086 8.74467 3.32867L8.66667 3.33333H3.33333V12.6667H12.6667V7.33333C12.6669 7.16341 12.7319 6.99998 12.8486 6.87642C12.9652 6.75286 13.1246 6.67851 13.2943 6.66855C13.4639 6.65859 13.6309 6.71378 13.7612 6.82284C13.8915 6.9319 13.9753 7.0866 13.9953 7.25533L14 7.33333V12.6667C14.0001 13.0031 13.8731 13.327 13.6443 13.5737C13.4156 13.8204 13.1021 13.9714 12.7667 13.9967L12.6667 14H3.33333C2.99695 14.0001 2.67296 13.8731 2.4263 13.6443C2.17965 13.4156 2.02856 13.1021 2.00333 12.7667L2 12.6667V3.33333C1.99989 2.99695 2.12694 2.67296 2.35566 2.4263C2.58439 2.17965 2.8979 2.02856 3.23333 2.00333L3.33333 2H8.66667ZM12.8287 2.22867C12.9486 2.1091 13.1096 2.03968 13.2789 2.03451C13.4482 2.02934 13.6131 2.08881 13.7402 2.20083C13.8672 2.31285 13.9469 2.46903 13.9629 2.63765C13.979 2.80626 13.9303 2.97467 13.8267 3.10867L13.7713 3.172L7.17133 9.77133C7.05136 9.8909 6.89038 9.96032 6.72108 9.96549C6.55178 9.97066 6.38686 9.91119 6.25981 9.79917C6.13277 9.68715 6.05313 9.53097 6.03707 9.36235C6.02101 9.19374 6.06973 9.02533 6.17333 8.89133L6.22867 8.82867L12.8287 2.22867Z" fill="#64748B"/>
</svg>
