<svg width="24" height="24" viewBox="0 0 24 24" fill="none" xmlns="http://www.w3.org/2000/svg">
<path d="M15.9932 20.9912V18.992C15.9932 17.9316 15.5719 16.9146 14.8221 16.1647C14.0723 15.4149 13.0553 14.9937 11.9949 14.9937H5.99736C4.93693 14.9937 3.91994 15.4149 3.17011 16.1647C2.42028 16.9146 1.99902 17.9316 1.99902 18.992V20.9912" stroke="#475569" stroke-width="1.99917" stroke-linecap="round" stroke-linejoin="round"/>
<path d="M8.99638 10.9954C11.2046 10.9954 12.9947 9.20533 12.9947 6.99711C12.9947 4.78889 11.2046 2.99878 8.99638 2.99878C6.78816 2.99878 4.99805 4.78889 4.99805 6.99711C4.99805 9.20533 6.78816 10.9954 8.99638 10.9954Z" stroke="#475569" stroke-width="1.99917" stroke-linecap="round" stroke-linejoin="round"/>
<path d="M21.9905 20.9905V18.9916C21.9898 18.1058 21.695 17.2454 21.1523 16.5453C20.6097 15.8452 19.8498 15.3452 18.9922 15.1238" stroke="#475569" stroke-width="1.99917" stroke-linecap="round" stroke-linejoin="round"/>
<path d="M15.9932 3.12866C16.8532 3.34887 17.6155 3.84906 18.1599 4.55038C18.7043 5.2517 18.9998 6.11425 18.9998 7.00205C18.9998 7.88985 18.7043 8.7524 18.1599 9.45371C17.6155 10.155 16.8532 10.6552 15.9932 10.8754" stroke="#475569" stroke-width="1.99917" stroke-linecap="round" stroke-linejoin="round"/>
</svg>
