<svg width="24" height="24" viewBox="0 0 24 24" fill="none" xmlns="http://www.w3.org/2000/svg">
<path d="M19.9914 12.9946C19.9914 17.9926 16.4928 20.4915 12.3346 21.9409C12.1168 22.0147 11.8803 22.0112 11.6649 21.9309C7.49659 20.4915 3.99805 17.9926 3.99805 12.9946V5.99756C3.99805 5.73246 4.10336 5.47821 4.29082 5.29075C4.47828 5.10329 4.73252 4.99798 4.99763 4.99798C6.9968 4.99798 9.49576 3.79848 11.235 2.27911C11.4468 2.09819 11.7162 1.99878 11.9947 1.99878C12.2732 1.99878 12.5426 2.09819 12.7544 2.27911C14.5037 3.80847 16.9926 4.99798 18.9918 4.99798C19.2569 4.99798 19.5112 5.10329 19.6986 5.29075C19.8861 5.47821 19.9914 5.73246 19.9914 5.99756V12.9946Z" stroke="#475569" stroke-width="1.99917" stroke-linecap="round" stroke-linejoin="round"/>
</svg>
