<svg width="24" height="24" viewBox="0 0 24 24" fill="none" xmlns="http://www.w3.org/2000/svg">
<path d="M7.49707 4.26831L16.4933 9.41616" stroke="#475569" stroke-width="1.99917" stroke-linecap="round" stroke-linejoin="round"/>
<path d="M20.991 7.99667C20.9907 7.64609 20.8981 7.30177 20.7227 6.99825C20.5472 6.69473 20.2951 6.44268 19.9915 6.26739L12.9944 2.26906C12.6905 2.09359 12.3457 2.00122 11.9948 2.00122C11.6439 2.00122 11.2991 2.09359 10.9952 2.26906L3.99812 6.26739C3.69451 6.44268 3.44233 6.69473 3.26688 6.99825C3.09144 7.30177 2.99889 7.64609 2.99854 7.99667V15.9933C2.99889 16.3439 3.09144 16.6882 3.26688 16.9918C3.44233 17.2953 3.69451 17.5473 3.99812 17.7226L10.9952 21.721C11.2991 21.8964 11.6439 21.9888 11.9948 21.9888C12.3457 21.9888 12.6905 21.8964 12.9944 21.721L19.9915 17.7226C20.2951 17.5473 20.5472 17.2953 20.7227 16.9918C20.8981 16.6882 20.9907 16.3439 20.991 15.9933V7.99667Z" stroke="#475569" stroke-width="1.99917" stroke-linecap="round" stroke-linejoin="round"/>
<path d="M3.29883 6.99707L11.9952 11.995L20.6916 6.99707" stroke="#475569" stroke-width="1.99917" stroke-linecap="round" stroke-linejoin="round"/>
<path d="M11.9951 21.991V11.9951" stroke="#475569" stroke-width="1.99917" stroke-linecap="round" stroke-linejoin="round"/>
</svg>
