<svg width="16" height="16" viewBox="0 0 16 16" fill="none" xmlns="http://www.w3.org/2000/svg">
<path d="M14.3623 7.36325C14.565 7.64725 14.6663 7.78992 14.6663 7.99992C14.6663 8.21059 14.565 8.35258 14.3623 8.63658C13.4517 9.91392 11.1257 12.6666 7.99967 12.6666C4.87301 12.6666 2.54767 9.91325 1.63701 8.63658C1.43434 8.35258 1.33301 8.20992 1.33301 7.99992C1.33301 7.78925 1.43434 7.64725 1.63701 7.36325C2.54767 6.08592 4.87367 3.33325 7.99967 3.33325C11.1263 3.33325 13.4517 6.08659 14.3623 7.36325Z" stroke="#64748B" stroke-width="1.5"/>
<path d="M10 8C10 7.46957 9.78929 6.96086 9.41421 6.58579C9.03914 6.21071 8.53043 6 8 6C7.46957 6 6.96086 6.21071 6.58579 6.58579C6.21071 6.96086 6 7.46957 6 8C6 8.53043 6.21071 9.03914 6.58579 9.41421C6.96086 9.78929 7.46957 10 8 10C8.53043 10 9.03914 9.78929 9.41421 9.41421C9.78929 9.03914 10 8.53043 10 8Z" stroke="#64748B" stroke-width="1.5"/>
</svg>
